<svg width="114" height="114" viewBox="0 0 114 114" fill="none" xmlns="http://www.w3.org/2000/svg">
<g clip-path="url(#clip0_31_120)">
<path fill-rule="evenodd" clip-rule="evenodd" d="M52.9181 47.3522C53.0029 47.8372 53.1809 48.3228 53.3589 48.8076C54.1524 51.4215 55.0318 54.4693 56.6698 56.7363C58.8547 59.7096 61.3498 60.8873 63.865 60.9054C67.4049 60.9281 71.082 58.3799 73.3789 54.8409C75.6752 51.3344 76.6834 46.9114 75.3478 43.3118C74.4586 40.8452 72.4455 38.719 68.9258 37.518C64.9434 36.134 61.1061 37.144 57.7132 39.4046C56.3943 40.2521 55.2588 41.2797 54.1213 42.4136C53.868 40.8915 53.6145 39.3546 53.3618 37.7962C52.7043 32.697 52.6098 27.3476 52.9774 22.225C53.3736 15.4474 54.8829 8.98327 57.5986 2.75983C57.7949 2.18371 57.5267 1.51575 56.972 1.26769C56.4172 1.02057 55.7608 1.28507 55.4715 1.8596C52.6583 8.32825 51.0513 15.0459 50.6506 22.0899C50.3735 27.3631 50.3727 32.8656 51.1209 38.1144C51.4561 40.2891 51.7919 42.4238 52.2214 44.5359C50.0317 47.2597 48.3022 50.2979 47.2328 52.8882C40.4128 70.222 48.4839 93.8605 56.5945 109.813C56.8644 110.371 57.5133 110.593 58.0771 110.31C58.641 110.027 58.8391 109.343 58.5692 108.785C50.7293 93.3448 42.737 70.5024 49.361 53.726C50.1403 51.7531 51.3905 49.4948 52.9181 47.3522ZM54.727 45.1249C54.8961 46.1247 55.1579 47.1196 55.5135 48.1133C56.3108 50.5102 57.0075 53.3228 58.4625 55.3985C60.1009 57.6431 61.9481 58.6224 63.8112 58.6359C66.7922 58.6564 69.6247 56.4598 71.4441 53.5964C73.3573 50.7029 74.3516 47.0735 73.1916 44.101C72.4791 42.1882 70.9224 40.5934 68.2365 39.663C64.9021 38.5221 61.7194 39.4288 58.9854 41.2926C57.3838 42.3281 55.9634 43.6583 54.727 45.1249Z" fill="#F6F3EE"/>
<path fill-rule="evenodd" clip-rule="evenodd" d="M57.7077 110.005C57.2477 109.669 56.7904 109.169 56.3332 108.668C55.4181 107.705 54.597 106.686 53.8609 106.144C49.4463 102.81 44.1106 98.8652 38.831 97.0657C38.2755 96.8633 37.6179 97.179 37.4214 97.7719C37.2249 98.3638 37.4931 99.0085 38.1417 99.2125C43.1431 100.938 48.2021 104.757 52.5259 107.959C53.2612 108.543 54.2644 109.772 55.1791 110.758C56.0031 111.596 56.8303 112.267 57.6644 112.52C58.1273 112.696 58.9687 112.524 59.5456 111.485C60.3163 110.011 61.0399 105.894 61.1399 105.496C62.1409 101.465 63.1334 97.919 66.7167 95.4241C67.1888 95.0642 67.2939 94.3552 67.0232 93.8446C66.6594 93.3324 65.916 93.2079 65.4439 93.5687C61.3888 96.4132 60.0164 100.38 58.9124 104.976C58.9074 105.271 58.4924 107.732 57.904 109.437C57.8077 109.62 57.804 109.824 57.7077 110.005Z" fill="#F6F3EE"/>
</g>
<defs>
<clipPath id="clip0_31_120">
<rect width="111.605" height="111.605" fill="white" transform="translate(111.589 113.509) rotate(-179.014)"/>
</clipPath>
</defs>
</svg>
