<svg width="119" height="119" viewBox="0 0 119 119" fill="none" xmlns="http://www.w3.org/2000/svg">
<path fill-rule="evenodd" clip-rule="evenodd" d="M52.0106 0.478271H51.9499L51.8892 0.479858C45.6591 0.646061 40.8202 2.16847 35.5743 4.40686C34.3125 4.94513 33.0503 5.4013 31.6469 5.90824L31.6417 5.90983C30.8394 6.19765 30.0391 6.49132 29.2411 6.79082C26.9678 7.6504 24.4533 8.70752 22.1102 10.2458C18.3518 12.7131 15.6342 15.4314 12.9869 18.6892C12.573 19.1957 12.1553 19.6991 11.7338 20.1993L11.6838 20.2588C9.83537 22.4643 7.63902 25.0851 6.05751 28.2481C2.1801 36.0033 1.32806 44.6991 1.39152 52.5201C1.43 57.2314 3.12813 61.5467 4.46847 64.9533L4.5121 65.0631C4.68267 65.4979 4.84768 65.9164 5.00476 66.3241C6.82149 71.0353 8.90637 75.837 11.5026 80.3975L11.6676 80.6878C13.781 84.401 16.1213 88.5129 18.783 92.232C20.0729 94.0341 21.0717 95.4486 21.8314 96.9988C22.7167 98.8048 23.9059 101.165 26.0709 103.164C30.4037 107.163 35.0082 108.741 39.965 109.86C41.6933 110.25 43.4096 110.264 44.6972 110.253C44.9769 110.251 45.2426 110.248 45.4929 110.244C46.5282 110.231 47.2601 110.224 47.9538 110.29C50.7801 110.563 53.8451 110.842 56.907 110.877C57.6496 110.885 58.4084 110.902 59.1906 110.919L59.2216 110.919C61.4211 110.967 63.7947 111.019 66.216 110.884C70.2259 110.661 73.8835 109.512 77.072 108.429C86.0965 105.362 92.3238 99.7861 97.8668 93.0761C100.776 89.5541 103.492 85.8036 105.708 81.526C106.033 80.8993 106.511 80.2785 107.326 79.2372L107.329 79.2333C107.506 79.0072 107.696 78.7644 107.896 78.505C108.848 77.2737 110.239 75.4142 110.903 73.1182C111.494 71.077 111.769 68.839 111.988 67.0528L111.996 66.9905C112.083 66.2785 112.161 65.6474 112.246 65.0937C113.121 59.4043 113.377 52.7958 112.489 46.8724C112.261 45.3579 111.914 43.8506 111.612 42.5408L111.605 42.5118C111.502 42.0644 111.404 41.642 111.316 41.2393C111.071 40.1279 110.695 39.1675 110.423 38.4877L110.343 38.2869L110.312 38.2096C110.071 37.6118 109.932 37.2612 109.826 36.8966C109.645 36.279 109.552 35.6785 109.415 34.7693L109.414 34.7626C109.349 34.3302 109.275 33.8387 109.178 33.2818C108.839 31.3326 108.027 29.6432 107.488 28.523L107.461 28.4675C107.376 28.2909 107.3 28.1327 107.231 27.9847C105.883 25.1089 104.298 22.3441 102.832 19.7848L102.815 19.7555L102.297 18.8507C101.053 16.6738 99.2591 15.0399 97.6693 13.819C96.4578 12.8888 95.1425 12.0379 94.0735 11.3465L94.0485 11.3307C93.7319 11.126 93.4396 10.9368 93.1703 10.7595C90.5729 9.04746 86.8335 6.85389 83.0763 5.9487C82.2913 5.75949 81.5777 5.60479 80.9291 5.46358L80.9224 5.46239C79.2842 5.10658 78.0997 4.84478 76.8502 4.32911C74.0616 3.17878 71.2247 2.78608 68.8959 2.51C68.5472 2.46874 68.2068 2.42947 67.8776 2.39179L67.8752 2.39139C65.8554 2.15934 64.2727 1.97291 62.7689 1.55205C58.9824 0.491758 55.0038 0.478271 52.0106 0.478271ZM39.157 12.8027C43.7912 10.8257 47.4362 9.73885 52.0732 9.60716C55.1712 9.60795 57.9169 9.6734 60.3076 10.3426C62.5734 10.9772 64.9121 11.243 66.8443 11.4628L66.9006 11.4691C67.218 11.5048 67.5238 11.5397 67.8205 11.575C70.0962 11.8448 71.8363 12.1355 73.3675 12.7674C75.4309 13.619 77.5932 14.0875 79.3274 14.4628L79.3853 14.4754C79.9521 14.5984 80.4658 14.7095 80.9379 14.8233C83.0755 15.3386 85.7133 16.7777 88.1465 18.3814C88.5106 18.6214 88.8688 18.8535 89.2151 19.0772L89.2167 19.0784L89.2191 19.08C90.2774 19.7646 91.2175 20.3743 92.1088 21.0593C93.2861 21.9629 93.9957 22.7225 94.3714 23.3798C94.5423 23.6793 94.7129 23.9768 94.8823 24.2723L94.8898 24.2854C96.3884 26.9026 97.7879 29.3469 98.9652 31.859C99.0699 32.0823 99.1687 32.2905 99.2603 32.4837L99.2607 32.4845C99.8446 33.7166 100.079 34.2394 100.185 34.8459C100.227 35.0918 100.272 35.3889 100.326 35.7447L100.333 35.7931C100.486 36.8014 100.698 38.2088 101.064 39.4579C101.307 40.2913 101.621 41.0692 101.844 41.6205L101.854 41.6443L101.855 41.6491L101.948 41.8796C102.203 42.517 102.33 42.8792 102.4 43.2009C102.519 43.7415 102.637 44.2524 102.749 44.7364L102.75 44.7431C103.044 46.0168 103.291 47.0926 103.461 48.2266C104.182 53.0326 103.995 58.6899 103.223 63.7053C103.072 64.6879 102.964 65.5752 102.867 66.3793V66.3805L102.866 66.3908C102.667 68.027 102.511 69.2789 102.135 70.58C102.001 71.0401 101.628 71.6875 100.673 72.9235C100.544 73.0897 100.404 73.2674 100.251 73.4626L100.212 73.5121C99.4404 74.4919 98.3626 75.8608 97.6034 77.3261C95.7851 80.835 93.4947 84.0353 90.8287 87.2622C85.8779 93.2554 80.9621 97.4656 74.135 99.7858C71.0081 100.848 68.3731 101.622 65.7098 101.769C63.6678 101.883 61.7332 101.842 59.5746 101.795H59.5682C58.7487 101.777 57.8979 101.758 57.0093 101.748C54.3806 101.719 51.6686 101.478 48.8297 101.204C47.5881 101.084 46.293 101.102 45.2851 101.117L45.2454 101.117C45.0245 101.121 44.8182 101.123 44.6238 101.125C43.3823 101.135 42.5885 101.094 41.9757 100.956C37.7131 99.9928 34.9031 98.8928 32.2629 96.4561C31.4708 95.7247 30.9067 94.7727 30.0285 92.9805C28.9055 90.6898 27.4898 88.7124 26.2831 87.0262L26.2066 86.9191C23.8325 83.6021 21.6985 79.856 19.516 76.0222L19.4359 75.8814C17.1511 71.868 15.2526 67.528 13.5224 63.0401C13.353 62.6006 13.1852 62.1702 13.0214 61.751L13.0202 61.7482C11.5894 58.0806 10.5434 55.34 10.52 52.4456C10.4609 45.1913 11.2919 38.1917 14.2225 32.3306C15.2824 30.2108 16.704 28.496 18.5557 26.2791L18.5589 26.2751C19.0673 25.6687 19.5716 25.0589 20.0717 24.4457C22.3034 21.6991 24.3486 19.6964 27.1201 17.8769C28.6116 16.8979 30.3744 16.122 32.4696 15.3299C33.1581 15.0716 33.8484 14.8183 34.5406 14.5699L34.5652 14.5611C36.0415 14.0272 37.6588 13.4421 39.157 12.8027Z" fill="#E8A248"/>
<path fill-rule="evenodd" clip-rule="evenodd" d="M60.6233 33.7572C54.0506 30.3161 45.9078 32.5073 41.6373 39.1797C38.7103 43.7528 38.1573 49.7147 38.7023 54.2558C38.7507 54.658 38.7991 55.1229 38.8542 55.6516L38.8582 55.6933C39.0466 57.5045 39.3033 59.969 39.8431 62.2783C40.5199 65.1732 41.8927 69.0661 45.3076 71.4215C50.6666 75.1173 57.7368 74.7892 62.2211 74.2129C63.9863 73.986 65.4067 73.2371 66.3627 72.65C66.8037 72.3752 67.2365 72.0875 67.6606 71.7872L67.8212 71.675C68.0645 71.5022 68.3107 71.3338 68.5598 71.1696C69.5559 70.5243 70.5261 69.7928 71.4063 68.8182C72.2976 67.8313 72.9426 66.767 73.4924 65.6119C74.826 62.8115 75.2381 59.9114 75.5539 57.6885L75.5654 57.6064C75.6054 57.326 75.6435 57.0578 75.682 56.798C76.0695 54.1808 75.9965 51.7012 75.2647 49.2518C74.5408 46.829 73.2603 44.7322 71.6629 42.7564C70.7605 41.6406 69.6947 40.975 68.7927 40.4664C68.5753 40.3439 68.3738 40.2328 68.1846 40.1289L68.1838 40.1285C67.5622 39.7869 67.0755 39.5192 66.6078 39.1527C65.6011 37.4494 63.6368 35.3348 60.6233 33.7572ZM49.3263 44.1003C51.1585 41.2372 54.1957 40.6961 56.3893 41.8445C57.1957 42.2669 57.7737 42.7262 58.1616 43.1035C58.3556 43.2923 58.5004 43.4589 58.6007 43.5874C58.6507 43.6513 58.688 43.7036 58.7138 43.7421C58.7407 43.7826 58.7511 43.8012 58.7491 43.7972C59.947 45.9936 62.0981 47.1852 63.7546 47.9912C64.0834 48.1515 64.2116 48.2149 64.3234 48.278C64.3964 48.3193 64.4123 48.3327 64.4202 48.3391C64.4309 48.3478 64.4749 48.3859 64.5642 48.4958C65.6804 49.8766 66.2381 50.9277 66.5182 51.8651C66.7907 52.7766 66.8875 53.8702 66.6519 55.4604C66.6102 55.7401 66.5709 56.0122 66.5329 56.2744L66.5317 56.2823C66.1798 58.704 65.943 60.2327 65.2504 61.6873C64.9648 62.2875 64.7732 62.5429 64.6316 62.6996C64.4793 62.8682 64.2207 63.1038 63.5959 63.5084C63.2346 63.7428 62.874 63.9951 62.5848 64.1974L62.5741 64.205L62.4337 64.3029C62.1561 64.5006 61.8729 64.6903 61.5844 64.8718C61.3405 65.0213 61.181 65.0998 61.0874 65.1387C61.0667 65.1475 61.0456 65.1556 61.0243 65.1629C58.9426 65.4287 56.8744 65.5263 55.0192 65.3378C53.1418 65.147 51.6055 64.6758 50.4905 63.9067C49.9946 63.5651 49.285 62.5655 48.732 60.2002C48.3358 58.5056 48.1497 56.7504 47.9613 54.9487L47.9605 54.9416L47.9601 54.938V54.9368C47.8999 54.3468 47.8352 53.7572 47.7662 53.1681C47.3727 49.8908 47.9248 46.2899 49.3263 44.1003Z" fill="#E8A248"/>
<path fill-rule="evenodd" clip-rule="evenodd" d="M47.1022 16.2503C44.6865 16.1813 42.6211 16.6628 39.9325 18.0075C39.7076 18.1202 39.4664 18.2376 39.2018 18.3657L39.1241 18.4038C37.4609 19.2122 35.0464 20.3856 33.1059 22.3257C32.9349 22.497 32.7616 22.6692 32.585 22.8453L32.4898 22.9397C29.5624 25.8528 25.8643 29.5315 24.5478 35.2772C23.954 37.8682 23.8572 40.4751 23.8782 42.8056C23.8881 43.8912 23.925 44.9722 23.9595 45.9801L23.9675 46.2185C24.0047 47.3176 24.0369 48.3287 24.0369 49.3018C24.0369 52.3125 24.8171 55.1597 25.5152 57.4021C25.7493 58.1518 25.9302 58.9618 26.1364 59.9543L26.2209 60.3648L26.2249 60.3846C26.3986 61.2287 26.6017 62.2137 26.8603 63.1922C27.4716 65.5012 28.3355 67.6805 29.144 69.6345C29.3046 70.0224 29.4633 70.4024 29.6188 70.7741L29.6243 70.7872L29.6251 70.7892C30.2772 72.3505 30.8631 73.7543 31.355 75.1775C32.1666 77.525 33.186 79.7586 34.4728 81.9252C35.4827 83.6265 36.7845 84.8181 37.6425 85.6039L37.6814 85.6396C37.9103 85.849 38.09 86.0141 38.2411 86.162C40.3212 88.2013 42.9678 89.0422 45.0067 89.4698C46.5969 89.8034 48.2724 89.9649 49.5267 90.0858L49.5636 90.0894C49.9126 90.1231 50.224 90.1533 50.5017 90.183C54.8309 90.6511 59.6452 90.5071 63.8011 90.0394C65.4671 89.8522 68.2624 89.5079 70.6718 88.1545C71.1145 87.9058 71.546 87.7201 72.2152 87.4353L72.22 87.4333L72.2212 87.4325C72.5845 87.2778 73.0054 87.0985 73.4964 86.876C74.6924 86.3346 76.3794 85.4912 77.7963 84.0256C78.1323 83.6777 78.4544 83.3909 78.9062 82.9895L78.9094 82.9867C79.1815 82.7451 79.4933 82.4683 79.8558 82.1327C80.6999 81.3512 81.8003 80.256 82.6567 78.807C83.421 77.5139 84.2786 76.26 85.2306 74.8967L85.5801 74.3965L85.6043 74.362C86.429 73.1831 87.3227 71.9058 88.1668 70.573C91.5603 65.2152 91.4583 58.4842 90.7336 53.6195C89.9466 48.3351 88.1525 42.2562 84.9434 37.3784C82.454 33.5942 79.5186 29.4173 75.3314 26.1725C74.5976 25.6037 73.859 25.0278 73.1141 24.447L73.1073 24.4419C71.1732 22.9341 69.1982 21.3951 67.2168 19.9088C64.0149 17.5073 59.0288 16.2741 55.1736 16.6335L55.0106 16.649C54.3128 16.7144 53.84 16.7573 53.3708 16.7624C52.0574 16.7037 51.0062 16.6006 50.0586 16.4998L49.7151 16.4633L49.6802 16.4594C48.8682 16.3721 47.9694 16.2753 47.1022 16.2503ZM44.015 26.1725C44.844 25.758 45.3783 25.5656 45.769 25.4708C46.1356 25.3824 46.4374 25.3637 46.8412 25.3756C47.32 25.3891 47.8476 25.4443 48.7464 25.5406L49.0951 25.5775C50.1407 25.6886 51.4434 25.8175 53.0891 25.8873L53.1859 25.8913H53.2823C54.2367 25.8913 55.1328 25.8068 55.8043 25.7433L55.8285 25.741H55.8309C55.8945 25.7348 55.9581 25.7287 56.0217 25.7227C57.8622 25.551 60.3628 26.1789 61.7396 27.2118C63.648 28.643 65.5361 30.115 67.4627 31.6164L67.4651 31.6184C68.2172 32.2046 68.9752 32.7953 69.7396 33.3875C72.6349 35.6314 74.8729 38.6806 77.3171 42.3958C79.5635 45.8103 81.0387 50.493 81.7047 54.9642C82.3342 59.1919 82.0522 63.1661 80.4548 65.6885C79.7317 66.8305 78.9601 67.934 78.1192 69.1363L78.1065 69.1545L77.7451 69.6714C76.7856 71.0462 75.7531 72.546 74.7975 74.1632C74.6289 74.4484 74.3168 74.8209 73.6543 75.4338C73.4933 75.5829 73.2926 75.7622 73.0542 75.9748L73.0304 75.9958C72.4996 76.4691 71.8058 77.0879 71.2331 77.6809C71.0625 77.857 70.6916 78.1252 69.7297 78.5607C69.5238 78.6543 69.2704 78.7626 68.9657 78.8931L68.9264 78.9098L68.9257 78.9102C68.1518 79.2414 67.0931 79.6944 66.2006 80.1958C65.596 80.5353 64.5409 80.7701 62.7805 80.9681C59.1125 81.381 54.9904 81.4865 51.483 81.1073C51.0727 81.0636 50.6622 81.0223 50.2514 80.9831L50.2466 80.9827C49.0019 80.8618 47.9297 80.7555 46.8805 80.5357C45.4795 80.2418 44.8686 79.8756 44.6318 79.6436C44.259 79.2792 43.8803 78.921 43.4957 78.569L43.493 78.5662C42.7988 77.9264 42.5993 77.7321 42.322 77.2648C41.3676 75.6575 40.6033 73.9899 39.9829 72.195C39.3879 70.4738 38.677 68.7733 38.0297 67.2255L38.0198 67.2014C37.869 66.8408 37.7219 66.4889 37.5791 66.1434C36.7897 64.2375 36.1296 62.5354 35.685 60.8563C35.4966 60.1446 35.3466 59.4187 35.1669 58.5461L35.1665 58.5445V58.5437L35.0745 58.099C34.8643 57.086 34.608 55.8971 34.2312 54.6873C33.5787 52.5921 33.1654 50.8531 33.1654 49.3018C33.1654 48.1534 33.1281 46.9967 33.0908 45.9083L33.0836 45.6937C33.0483 44.6608 33.0154 43.6873 33.0067 42.7231C32.9877 40.6485 33.0888 38.8746 33.4458 37.3165C34.1463 34.259 36.0459 32.2947 39.3526 28.9893L39.5608 28.781C40.3311 28.0107 41.2994 27.5129 43.1126 26.6192L43.1146 26.6184C43.3978 26.4788 43.6992 26.3304 44.015 26.1725Z" fill="#E8A248"/>
<path d="M56.3825 4.67749H56.3215L56.2608 4.67908C50.0307 4.84528 45.1918 6.36769 39.9463 8.60608C38.6845 9.14435 37.4223 9.60052 36.0185 10.1075L36.0133 10.109C35.211 10.3969 34.4107 10.6905 33.6127 10.99C31.3398 11.8496 28.8249 12.9067 26.4822 14.445C22.7238 16.9123 20.0058 19.6306 17.3589 22.8885C16.9448 23.395 16.527 23.8983 16.1054 24.3986L16.0558 24.4581C14.2074 26.6639 12.011 29.2843 10.4295 32.4473C6.55169 40.2026 5.69965 48.8983 5.76351 56.719C5.80159 61.4306 7.49972 65.7459 8.84045 69.1525L8.88409 69.2624C9.05465 69.6971 9.21927 70.1156 9.37675 70.5234C11.1931 75.2346 13.2784 80.0362 15.8741 84.5967L16.0396 84.8871C18.153 88.6003 20.4933 92.7121 23.155 96.4313C24.4449 98.2333 25.4433 99.6478 26.2033 101.198C27.0887 103.004 28.2779 105.364 30.4429 107.363C34.7757 111.363 39.3798 112.94 44.337 114.059C46.0648 114.449 47.7812 114.463 49.0692 114.453C49.3488 114.45 49.6146 114.447 49.8645 114.443C50.9002 114.43 51.6321 114.423 52.3258 114.49C55.1517 114.762 58.2167 115.041 61.2786 115.076C62.0212 115.084 62.78 115.101 63.5622 115.117L63.5935 115.118C65.7927 115.166 68.1663 115.218 70.588 115.083C74.5975 114.86 78.2555 113.712 81.4439 112.628C90.4685 109.562 96.6954 103.985 102.238 97.2754C105.148 93.7534 107.864 90.0029 110.081 85.7252C110.405 85.0981 110.883 84.4773 111.697 83.4365L111.7 83.4325C111.877 83.2064 112.068 82.9636 112.268 82.7042C113.219 81.473 114.61 79.6134 115.275 77.3175C115.866 75.2762 116.14 73.0382 116.36 71.252L116.367 71.1898C116.455 70.4777 116.532 69.8467 116.618 69.2925C117.493 63.6035 117.749 56.995 116.86 51.0716C116.633 49.5571 116.286 48.0498 115.984 46.74L115.977 46.7111C115.878 46.2874 115.782 45.8633 115.688 45.4386C115.443 44.3271 115.067 43.3668 114.795 42.6869L114.715 42.4862L114.683 42.4088C114.443 41.811 114.304 41.4604 114.198 41.0959C114.017 40.4782 113.924 39.8777 113.787 38.9685L113.786 38.9618C113.721 38.5294 113.647 38.038 113.55 37.481C113.211 35.5318 112.399 33.8424 111.86 32.7222L111.833 32.6667C111.748 32.4902 111.672 32.3319 111.603 32.1839C110.255 29.3081 108.67 26.5433 107.204 23.9841L107.187 23.9547L106.669 23.0499C105.425 20.873 103.631 19.2391 102.041 18.0182C100.829 17.088 99.5145 16.2372 98.4451 15.5458L98.4201 15.5299C98.1039 15.3252 97.8112 15.136 97.5419 14.9587C94.9449 13.2467 91.2055 11.0531 87.4483 10.1479C86.6633 9.95871 85.9497 9.80401 85.3011 9.6628L85.2944 9.66161C83.6562 9.3058 82.4717 9.04439 81.2218 8.52833C78.4336 7.378 75.5963 6.9853 73.2674 6.70922C72.9188 6.66757 72.5788 6.62869 72.2492 6.59061H72.2468C70.2274 6.35856 68.6447 6.17213 67.1409 5.75127C63.354 4.69098 59.3754 4.67749 56.3825 4.67749ZM43.529 17.0019C48.1628 15.0249 51.8082 13.9381 56.4452 13.8064C59.5432 13.8072 62.2885 13.8722 64.6792 14.5418C66.9454 15.1765 69.2841 15.4422 71.2159 15.662L71.2722 15.6683C71.5899 15.704 71.8954 15.7389 72.1921 15.7742C74.4682 16.044 76.2079 16.3347 77.7395 16.9666C79.8025 17.8183 81.9648 18.2863 83.699 18.662L83.7569 18.6747C84.3237 18.7976 84.8378 18.9087 85.3099 19.0225C87.4471 19.5374 90.0853 20.9769 92.5185 22.5806C92.8826 22.8206 93.2408 23.0527 93.5867 23.2764L93.5887 23.2776L93.5911 23.2792C94.649 23.9638 95.5891 24.5735 96.4808 25.2585C97.6577 26.1621 98.3673 26.9218 98.743 27.579L99.2539 28.4715L99.2614 28.4846C100.76 31.1018 102.159 33.5461 103.337 36.0582C103.441 36.2815 103.54 36.4898 103.632 36.6829L103.632 36.6837C104.217 37.9158 104.451 38.4386 104.556 39.0451C104.599 39.291 104.644 39.5881 104.698 39.9439L104.705 39.9923C104.858 41.0007 105.07 42.4076 105.435 43.6571C105.679 44.4905 105.993 45.2684 106.216 45.8198L106.225 45.8436L106.227 45.8483L106.32 46.0788C106.575 46.7162 106.701 47.0784 106.772 47.4001C106.891 47.9407 107.009 48.4516 107.121 48.9356L107.122 48.9423C107.416 50.216 107.663 51.2918 107.833 52.4258C108.554 57.2319 108.367 62.8891 107.595 67.9046C107.444 68.8871 107.336 69.7745 107.239 70.5785L107.238 70.5797L107.237 70.59C107.039 72.2263 106.883 73.4777 106.506 74.7792C106.373 75.2393 106 75.8867 105.044 77.1227C104.916 77.2889 104.776 77.4666 104.622 77.6618L104.583 77.7114C103.812 78.6911 102.735 80.06 101.975 81.5253C100.157 85.0342 97.8667 88.2345 95.2007 91.4614C90.2499 97.4547 85.3337 101.665 78.507 103.985C75.3797 105.047 72.745 105.821 70.0814 105.969C68.0398 106.082 66.1048 106.041 63.9462 105.994L63.9402 105.994C63.1207 105.976 62.2699 105.958 61.3813 105.948C58.7526 105.918 56.0406 105.677 53.2017 105.403C51.9597 105.283 50.665 105.302 49.6571 105.316L49.6174 105.317C49.396 105.32 49.1902 105.323 48.9954 105.324C47.7539 105.334 46.9605 105.293 46.3477 105.155C42.0847 104.192 39.2747 103.092 36.6345 100.655C35.8423 99.9239 35.2787 98.9719 34.4001 97.1798C33.2771 94.889 31.8618 92.9116 30.6547 91.2254L30.5782 91.1183C28.2045 87.8014 26.0701 84.0553 23.8876 80.2215L23.8079 80.0807C21.5231 76.0668 19.6242 71.7272 17.894 67.2394C17.7246 66.7999 17.5568 66.3695 17.3934 65.9502L17.3922 65.9474C15.961 62.2798 14.9154 59.5393 14.8916 56.6448C14.8329 49.3905 15.6639 42.391 18.5941 36.5298C19.654 34.41 21.0756 32.6952 22.9273 30.4783L22.9308 30.4743C23.4112 29.8987 23.9185 29.2911 24.4437 28.6449C26.6754 25.8984 28.7206 23.8956 31.4917 22.0761C32.9832 21.0971 34.746 20.3212 36.8412 19.5291C37.5298 19.2709 38.2203 19.0175 38.9125 18.7691L38.9367 18.7603C40.4135 18.2264 42.0303 17.6414 43.529 17.0019Z" stroke="#4A4A4A" stroke-linecap="round" stroke-linejoin="round"/>
<path d="M64.995 37.956C58.4226 34.5149 50.2795 36.7061 46.0093 43.3784C43.0823 47.9516 42.5294 53.9135 43.0744 58.4545C43.1224 58.8567 43.1708 59.3216 43.2259 59.8504L43.2303 59.892C43.4187 61.7032 43.675 64.1677 44.2148 66.4771C44.8919 69.3719 46.2644 73.2648 49.6797 75.6202C55.0387 79.316 62.1088 78.9879 66.5932 78.4116C68.3583 78.1843 69.7784 77.4358 70.7344 76.8487C71.1755 76.574 71.6085 76.2863 72.0327 75.986L72.1929 75.8737C72.4995 75.6595 72.7193 75.506 72.9315 75.3684C73.9279 74.723 74.8978 73.9915 75.778 73.0169C76.6693 72.03 77.3143 70.9658 77.8644 69.8107C79.198 67.0102 79.6098 64.1102 79.9255 61.8872L79.9374 61.8051C79.9771 61.5247 80.0152 61.2565 80.0537 60.9967C80.4416 58.3795 80.3686 55.8996 79.6368 53.4505C78.9128 51.0277 77.632 48.9309 76.0346 46.9551C75.1322 45.8393 74.0664 45.1737 73.1643 44.6652C72.947 44.5426 72.7455 44.4315 72.5563 44.3276L72.5555 44.3272C71.9343 43.9857 71.4472 43.7179 70.9795 43.3514C69.9728 41.6481 68.0089 39.5335 64.995 37.956ZM53.6979 48.299C55.5305 45.4359 58.5674 44.8948 60.761 46.0432C61.5678 46.4656 62.1457 46.925 62.5333 47.3022C62.7276 47.491 62.872 47.6576 62.9724 47.7861C63.0224 47.85 63.0601 47.9024 63.0858 47.9408C63.1128 47.9813 63.1227 48 63.1207 47.996C64.3187 50.1923 66.4702 51.3839 68.1263 52.1899C68.4555 52.3502 68.5836 52.4137 68.6955 52.4767C68.7681 52.518 68.7843 52.5315 68.7919 52.5378L68.7927 52.5382C68.803 52.5469 68.847 52.5846 68.9359 52.6945C70.0521 54.0753 70.6098 55.1265 70.8903 56.0638C71.1624 56.9753 71.2592 58.0689 71.0235 59.6592L70.9045 60.4731L70.9033 60.4811C70.5519 62.9027 70.3151 64.4315 69.6225 65.886C69.3369 66.4862 69.1449 66.7417 69.0037 66.8983C68.851 67.0669 68.5924 67.3025 67.968 67.7071C67.6269 67.9308 67.2898 68.1605 66.9569 68.3961L66.9462 68.4037L66.8058 68.5017C66.4603 68.7428 66.1989 68.9213 65.9561 69.0705C65.7126 69.22 65.5527 69.2986 65.4591 69.3374C65.4384 69.3462 65.4173 69.3543 65.396 69.3616C63.3143 69.6274 61.2461 69.725 59.3909 69.5366C57.5139 69.3458 55.9776 68.8745 54.8621 68.1054C54.3667 67.7639 53.6571 66.7643 53.1041 64.3989C52.7078 62.7044 52.5218 60.9491 52.3334 59.1475L52.3326 59.1403L52.3322 59.1368L52.3318 59.1356C52.2717 58.5455 52.2071 57.9559 52.1378 57.3668C51.7447 54.0896 52.2965 50.4886 53.6979 48.299Z" stroke="#4A4A4A" stroke-linecap="round" stroke-linejoin="round"/>
<path d="M51.4739 20.4493C49.0582 20.3803 46.9931 20.8618 44.3041 22.2065C44.0792 22.3192 43.838 22.4366 43.5739 22.5647L43.4957 22.6028C41.8325 23.4108 39.418 24.5841 37.4779 26.525L36.9571 27.0439L36.8619 27.1391C33.9341 30.0514 30.2363 33.7301 28.9198 39.4762C28.326 42.0672 28.2288 44.6737 28.2502 47.0045C28.2597 48.0898 28.2966 49.1711 28.3311 50.1791L28.3391 50.4175C28.3768 51.5166 28.4085 52.5277 28.4085 53.5007C28.4085 56.5114 29.1887 59.3587 29.8873 61.6011C30.1209 62.3508 30.3022 63.1608 30.5081 64.1532L30.5929 64.5638L30.5969 64.5836C30.7706 65.4277 30.9733 66.4126 31.2324 67.3912C31.8432 69.7002 32.7072 71.8795 33.516 73.8335C33.6762 74.2214 33.8353 74.6014 33.9904 74.9731L33.9959 74.9862L33.9967 74.9882C34.6493 76.5495 35.2351 77.9533 35.727 79.3765C36.5386 81.724 37.5576 83.9572 38.8448 86.1242C39.8543 87.8255 41.1562 89.0171 42.0146 89.8029L42.053 89.8382C42.2819 90.048 42.462 90.213 42.6131 90.361C44.6929 92.4003 47.3398 93.2412 49.3787 93.6688C50.9689 94.0024 52.6444 94.1638 53.8983 94.2848L53.9356 94.2884C54.2843 94.3221 54.5956 94.3519 54.8737 94.382C59.2029 94.8501 64.0169 94.7061 68.1727 94.2384C69.8391 94.0512 72.6345 93.7069 75.0434 92.3534C75.4861 92.1047 75.9177 91.9191 76.5868 91.6343L76.5916 91.6319L76.5928 91.6315C76.9561 91.4768 77.3774 91.2975 77.8681 91.075C79.0644 90.5331 80.7511 89.6902 82.1683 88.2245C82.5043 87.8767 82.826 87.5899 83.2782 87.1885L83.2814 87.1857C83.5531 86.9441 83.8653 86.6672 84.2278 86.3317C85.0719 85.5502 86.1723 84.455 87.0287 83.006C87.7927 81.7129 88.6507 80.459 89.6023 79.0957L89.9517 78.5955L89.9763 78.5606C90.801 77.3817 91.6947 76.1048 92.5388 74.772C95.9319 69.4142 95.8299 62.6832 95.1056 57.8185C94.3186 52.5341 92.5241 46.4551 89.3151 41.5773C86.8256 37.7931 83.8903 33.6162 79.7035 30.3715C78.9696 29.8027 78.2306 29.2267 77.4857 28.646L77.4793 28.6408C75.5448 27.1331 73.5702 25.5941 71.5884 24.1077C68.3869 21.7063 63.4008 20.4727 59.5452 20.8325L59.3826 20.8479C58.6845 20.913 58.2117 20.9562 57.7424 20.9614C56.429 20.9027 55.3779 20.7995 54.4306 20.6988C54.3161 20.6866 54.2016 20.6743 54.0871 20.6619L54.0518 20.6579C53.2402 20.5707 52.3414 20.4743 51.4739 20.4493ZM48.3866 30.3715C49.2156 29.957 49.75 29.7646 50.1411 29.6698C50.5076 29.5813 50.8091 29.5627 51.2129 29.5746C51.6916 29.5881 52.2196 29.6432 53.1181 29.7392L53.4667 29.7765C54.5123 29.8876 55.815 30.0165 57.4612 30.0863L57.5576 30.0903H57.6543C58.6083 30.0903 59.5044 30.0058 60.1759 29.9423L60.2005 29.9399H60.2025C60.2422 29.936 60.2807 29.932 60.3184 29.9288L60.3933 29.9217C62.2339 29.7499 64.7348 30.3779 66.1113 31.4108C68.02 32.8419 69.9082 34.314 71.8344 35.8154L71.8368 35.8169C72.5941 36.408 73.3522 36.998 74.1112 37.5869C77.0065 39.8304 79.2445 42.8796 81.6888 46.5948C83.9355 50.0093 85.4107 54.6919 86.0763 59.1632C86.7062 63.3908 86.4242 67.365 84.8268 69.8874C84.1033 71.0294 83.3322 72.133 82.4912 73.3353L82.4781 73.3535L82.1168 73.8704C81.1572 75.2452 80.1247 76.745 79.1695 78.3622C79.001 78.6474 78.6884 79.0199 78.0263 79.6327C77.8649 79.7819 77.6646 79.9612 77.4258 80.1738L77.4024 80.1948C76.8716 80.668 76.1779 81.2868 75.6047 81.8799C75.4345 82.056 75.0632 82.3241 74.1013 82.7597C73.8955 82.8533 73.6424 82.9616 73.3377 83.0921L73.2981 83.1087L73.2973 83.1091C72.5238 83.4403 71.4651 83.8933 70.5722 84.3947C69.9677 84.7343 68.9125 84.9691 67.1521 85.167C63.4841 85.5796 59.3624 85.6855 55.8547 85.3063C55.4326 85.2606 55.0197 85.2206 54.6234 85.1821L54.6183 85.1817C53.3735 85.0607 52.3013 84.9544 51.2521 84.7347C49.8511 84.4407 49.2402 84.0746 49.0038 83.8426C48.631 83.4782 48.2523 83.12 47.8678 82.768L47.8646 82.7652C47.1708 82.1254 46.9713 81.931 46.6936 81.4638C45.7393 79.8561 44.9753 78.1889 44.3549 76.394C43.7599 74.6728 43.0487 72.9723 42.4017 71.4245L42.3914 71.4003C42.2407 71.0398 42.0935 70.6879 41.9507 70.3424C41.1617 68.4364 40.5017 66.7343 40.057 65.0552C39.8686 64.3436 39.7187 63.6177 39.5386 62.7451V62.7435L39.5382 62.7427L39.4461 62.298C39.2359 61.2849 38.9797 60.0957 38.6028 58.8863C37.9503 56.7911 37.5374 55.0521 37.5374 53.5007C37.5374 52.352 37.4997 51.1957 37.4628 50.1073L37.4553 49.8927C37.4204 48.8597 37.387 47.8859 37.3783 46.922C37.3597 44.8475 37.4608 43.0736 37.8178 41.5151C38.5183 38.4579 40.418 36.4933 43.7246 33.1882L43.9328 32.9796C44.7032 32.2097 45.6714 31.7118 47.4846 30.8185L47.4862 30.8174C47.7698 30.6777 48.0709 30.5294 48.3866 30.3715Z" stroke="#4A4A4A" stroke-linecap="round" stroke-linejoin="round"/>
</svg>
