<svg width="96" height="96" viewBox="0 0 96 96" fill="none" xmlns="http://www.w3.org/2000/svg">
<g clip-path="url(#clip0_632_60)">
<path fill-rule="evenodd" clip-rule="evenodd" d="M47.1453 91.9991C41.0435 92.0919 31.1667 75.074 27.8051 70.3742C22.904 63.522 22.9405 63.5396 17.8922 56.7595C14.1546 51.739 9.76736 46.5579 7.14976 40.8641C6.4272 39.2919 5.01632 35.1867 4.6624 34.1748C2.68448 28.522 0.389119 21.9102 2.33824 15.9348C3.656 11.8964 8.7344 11.1118 12.5056 11.1649C21.5709 11.2929 29.2864 16.8987 34.3898 23.7927C37.185 27.5687 38.9898 31.7873 41.071 35.9524C41.6358 37.0827 42.2352 38.1963 42.8141 39.3198C43.0742 39.8254 43.3139 40.3409 43.5885 40.8391C43.7667 41.162 43.9373 41.4939 44.1709 41.7822C44.2662 41.8999 44.465 42.1531 44.5571 42.0324C44.9725 41.4881 45.1539 40.8071 45.399 40.1739C46.3158 37.803 47.2746 34.3131 48.0429 32.1175C48.6538 30.3719 49.831 27.7211 50.7622 26.139C51.9859 24.0596 53.225 21.9828 54.6282 20.0119C56.0323 18.0391 57.6026 16.1793 59.1712 14.3255C59.912 13.45 60.729 12.6366 61.5504 11.8315C65.1155 8.3377 70.3802 4.33066 75.8336 5.92682C82.1677 7.7809 83.4979 15.5985 83.265 21.0798C83.185 22.955 83.0682 24.8327 82.8054 26.6926C80.304 44.3876 70.8896 60.3047 61.0182 75.0513C59.639 77.1118 50.9754 91.9403 47.1453 91.9991Z" fill="#E8A248"/>
<path d="M52.5474 86.4336C46.4456 86.5261 36.5688 69.5085 33.2072 64.8083C28.3061 57.9562 28.3426 57.9738 23.2943 51.1936C19.5567 46.1734 15.1695 40.9923 12.5519 35.2982C11.8293 33.7261 10.4184 29.6211 10.0645 28.6093C8.08658 22.9562 5.79122 16.3443 7.74034 10.3693C9.0581 6.33023 14.1365 5.54559 17.9077 5.59935C26.973 5.72735 34.6885 11.3331 39.7919 18.2269C42.5871 22.0029 44.3919 26.2214 46.4731 30.3869C47.0379 31.5171 47.6373 32.6307 48.2162 33.7539C48.4763 34.2595 48.716 34.775 48.9906 35.2733C49.1688 35.5965 49.3394 35.9283 49.573 36.2163C49.6683 36.3341 49.8671 36.5872 49.9592 36.4669C50.3746 35.9226 50.556 35.2416 50.8011 34.608C51.7179 32.2371 52.6767 28.7475 53.445 26.5517C54.0559 24.8064 55.2331 22.1552 56.1643 20.5734C57.388 18.4941 58.6271 16.417 60.0303 14.4461C61.4344 12.4733 63.0047 10.6134 64.5733 8.75967C65.3141 7.88447 66.1311 7.07071 66.9525 6.26559C70.5176 2.77183 75.7823 -1.23521 81.2357 0.361274C87.5698 2.21535 88.9 10.0326 88.6671 15.5139C88.5871 17.3891 88.4706 19.2672 88.2075 21.1267C85.7061 38.8221 76.2917 54.7389 66.4203 69.4854C65.0411 71.5459 56.3775 86.3744 52.5474 86.4336Z" stroke="#27292F" stroke-miterlimit="1.5" stroke-linecap="round" stroke-linejoin="round"/>
</g>
<defs>
<clipPath id="clip0_632_60">
<rect width="96" height="96" fill="white"/>
</clipPath>
</defs>
</svg>
