<svg width="158" height="158" viewBox="0 0 158 158" fill="none" xmlns="http://www.w3.org/2000/svg">
<g clip-path="url(#clip0_679_15)">
<path fill-rule="evenodd" clip-rule="evenodd" d="M88.8815 156.588L88.9616 156.588L89.0416 156.585C97.2604 156.34 103.638 154.311 110.55 151.335C112.212 150.62 113.875 150.013 115.725 149.338L115.732 149.336C116.789 148.953 117.843 148.562 118.895 148.163C121.891 147.02 125.204 145.614 128.288 143.575C133.236 140.304 136.81 136.706 140.289 132.397C140.833 131.727 141.382 131.061 141.936 130.399L142.002 130.321C144.431 127.403 147.318 123.936 149.391 119.756C154.474 109.508 155.561 98.0323 155.444 87.714C155.374 81.4986 153.115 75.8125 151.332 71.3238L151.274 71.179C151.047 70.6061 150.828 70.0547 150.619 69.5174C148.202 63.3095 145.431 56.9834 141.987 50.9776L141.768 50.5952C138.964 45.7053 135.859 40.2903 132.331 35.3948C130.622 33.0228 129.298 31.1608 128.29 29.1189C127.114 26.7399 125.535 23.6311 122.67 21.0032C116.937 15.7447 110.855 13.6829 104.311 12.2276C102.029 11.7199 99.7648 11.7094 98.0661 11.7284C97.6972 11.7327 97.3465 11.7381 97.0163 11.7438C95.6505 11.766 94.685 11.7785 93.7694 11.6935C90.0395 11.3459 85.9946 10.9905 81.9548 10.9579C80.9751 10.95 79.9739 10.9313 78.9418 10.9121L78.901 10.9117C75.9989 10.8576 72.8671 10.7996 69.6733 10.9873C64.3839 11.2984 59.5631 12.8294 55.3611 14.2721C43.4678 18.3561 35.2756 25.7394 27.991 34.6155C24.1672 39.2744 20.6004 44.234 17.6941 49.887C17.2681 50.7152 16.6401 51.5363 15.5701 52.9134L15.5659 52.9187C15.3335 53.2177 15.0839 53.5388 14.8207 53.8819C13.5704 55.5104 11.7429 57.9696 10.8761 61.0015C10.1049 63.697 9.75226 66.6508 9.47093 69.0083L9.46073 69.0905C9.3486 70.0302 9.2487 70.8632 9.13852 71.5941C8.0081 79.1039 7.69797 87.8237 8.89527 95.6348C9.20154 97.632 9.66635 99.6192 10.0707 101.346L10.0797 101.384C10.2176 101.974 10.3482 102.531 10.4666 103.062C10.7936 104.527 11.2938 105.792 11.6557 106.688L11.7628 106.953L11.8039 107.055C12.1236 107.842 12.3088 108.304 12.4511 108.785C12.6918 109.599 12.8173 110.391 13.0017 111.59L13.0028 111.599C13.091 112.169 13.1904 112.817 13.3204 113.551C13.7761 116.121 14.8551 118.347 15.5705 119.822L15.6058 119.896C15.719 120.128 15.8202 120.337 15.9119 120.532C17.7028 124.32 19.8047 127.961 21.7503 131.331L21.7724 131.37L22.4597 132.561C24.11 135.428 26.484 137.576 28.5866 139.18C30.1888 140.402 31.9278 141.519 33.3411 142.427L33.3741 142.448C33.7926 142.717 34.1791 142.965 34.5352 143.198C37.9692 145.445 42.9119 148.324 47.8727 149.502C48.9092 149.748 49.8513 149.949 50.7075 150.133L50.7164 150.135C52.8793 150.597 54.4431 150.937 56.0937 151.612C59.7776 153.118 63.5221 153.624 66.5958 153.979C67.056 154.032 67.5051 154.082 67.9397 154.13L67.9428 154.131C70.6086 154.429 72.6975 154.668 74.6832 155.217C79.6834 156.6 84.9325 156.601 88.8815 156.588ZM105.787 140.274C99.6817 142.902 94.8774 144.351 88.7602 144.544C84.673 144.556 81.0502 144.482 77.8933 143.609C74.9014 142.781 71.8147 142.44 69.2646 142.159L69.1903 142.15C68.7714 142.105 68.3678 142.06 67.9762 142.015C64.9727 141.668 62.6756 141.292 60.6529 140.465C57.927 139.35 55.0723 138.741 52.7827 138.253L52.7063 138.237C51.9579 138.077 51.2797 137.933 50.6565 137.784C47.8341 137.114 44.3478 135.226 41.1309 133.121C40.6495 132.806 40.176 132.501 39.7181 132.207L39.716 132.206L39.7129 132.204C38.3138 131.305 37.0709 130.504 35.8921 129.604C34.335 128.417 33.3956 127.418 32.8972 126.553C32.6704 126.158 32.4441 125.766 32.2194 125.377L32.2094 125.36C30.2212 121.913 28.3645 118.694 26.8006 115.385C26.6615 115.091 26.5303 114.817 26.4086 114.562L26.4081 114.561C25.6326 112.938 25.3211 112.249 25.1793 111.45C25.1217 111.125 25.0614 110.734 24.9887 110.264L24.979 110.201C24.7738 108.871 24.4874 107.015 24.0001 105.369C23.6753 104.27 23.2575 103.245 22.9616 102.519L22.9484 102.487L22.9463 102.481L22.8228 102.177C22.4836 101.338 22.3152 100.86 22.2207 100.436C22.0614 99.7234 21.9038 99.0498 21.7547 98.4118L21.7526 98.4029C21.3599 96.7237 21.0293 95.3055 20.8 93.81C19.8288 87.4724 20.0514 80.0079 21.0481 73.3876C21.2433 72.0907 21.3819 70.9196 21.5072 69.8583L21.5072 69.8568L21.5088 69.8432C21.764 67.6836 21.9639 66.0313 22.4556 64.3132C22.6294 63.7056 23.1197 62.8499 24.3741 61.2152C24.543 60.9953 24.727 60.7603 24.9287 60.5022L24.9797 60.4366C25.9935 59.1407 27.4096 57.3301 28.405 55.3937C30.7891 50.7567 33.7973 46.5248 37.301 42.2562C43.8073 34.3283 50.2752 28.7529 59.2724 25.663C63.3933 24.2478 66.8666 23.2167 70.3796 23.0102C73.0732 22.8519 75.6257 22.8982 78.4738 22.9508L78.4822 22.9508C79.5635 22.9709 80.6861 22.9919 81.8584 23.0012C85.3266 23.0288 88.9057 23.3361 92.6523 23.6852C94.2908 23.8379 95.9994 23.8084 97.3291 23.7848L97.3815 23.7841C97.673 23.779 97.9451 23.7744 98.2015 23.7715C99.8395 23.7532 100.887 23.8037 101.696 23.9838C107.324 25.2359 111.036 26.6752 114.529 29.8789C115.577 30.8405 116.326 32.0941 117.492 34.4548C118.983 37.4723 120.859 40.0751 122.458 42.2947L122.56 42.4357C125.706 46.8017 128.537 51.7351 131.433 56.7838L131.539 56.9693C134.571 62.2547 137.094 67.9724 139.395 73.8861C139.621 74.4652 139.844 75.0323 140.062 75.5848L140.063 75.5884C141.966 80.4211 143.358 84.0324 143.401 87.851C143.51 97.4214 142.443 106.66 138.601 114.405C137.212 117.206 135.344 119.474 132.91 122.407L132.906 122.412C132.238 123.214 131.575 124.021 130.918 124.832C127.985 128.465 125.295 131.116 121.646 133.528C119.683 134.826 117.36 135.857 114.6 136.911C113.692 137.255 112.783 137.592 111.87 137.923L111.838 137.934C109.892 138.645 107.761 139.424 105.787 140.274Z" fill="#8985D5"/>
<path fill-rule="evenodd" clip-rule="evenodd" d="M77.3778 112.719C86.064 117.231 96.7976 114.306 102.404 105.485C106.246 99.439 106.95 91.571 106.212 85.5822C106.146 85.0517 106.081 84.4386 106.006 83.7412L106 83.6863C105.744 81.2976 105.395 78.0472 104.673 75.0026C103.768 71.1862 101.94 66.0561 97.4249 62.963C90.3391 58.1097 81.0127 58.5724 75.0988 59.3518C72.771 59.6586 70.9001 60.6526 69.6414 61.4312C69.0607 61.7956 68.4909 62.177 67.9327 62.5749L67.7212 62.7237C67.401 62.9527 67.0769 63.176 66.7489 63.3936C65.4375 64.2492 64.1606 65.2184 63.0034 66.5079C61.8317 67.8137 60.9852 69.2205 60.2648 70.7468C58.5172 74.4472 57.9857 78.275 57.5785 81.2091L57.5637 81.3174C57.512 81.6876 57.4629 82.0415 57.4132 82.3845C56.913 85.839 57.0198 89.1101 57.9957 92.3385C58.961 95.532 60.6592 98.2929 62.775 100.893C63.9703 102.361 65.3793 103.235 66.5715 103.902C66.8588 104.063 67.1251 104.208 67.3752 104.345L67.3762 104.345C68.1977 104.793 68.841 105.144 69.4595 105.626C70.795 107.869 73.3954 110.65 77.3778 112.719ZM92.2386 99.0254C89.8334 102.811 85.8286 103.537 82.9297 102.031C81.864 101.477 81.0995 100.874 80.5861 100.378C80.3294 100.13 80.1377 99.9104 80.0047 99.7413C79.9385 99.6572 79.8891 99.5883 79.8549 99.5376C79.8192 99.4844 79.8055 99.4598 79.8081 99.4651C78.2184 96.5724 75.3753 95.0094 73.1865 93.953C72.752 93.743 72.5827 93.6598 72.4348 93.5771C72.3384 93.523 72.3174 93.5052 72.3069 93.4969C72.2927 93.4854 72.2345 93.4354 72.1163 93.2908C70.6378 91.4738 69.8975 90.0893 69.5241 88.8539C69.1607 87.6524 69.0284 86.21 69.3325 84.111C69.3863 83.7418 69.4369 83.3827 69.4861 83.0366L69.4876 83.0261C69.9416 79.8297 70.2475 77.8118 71.1551 75.8898C71.5294 75.0968 71.7811 74.759 71.9672 74.5516C72.1675 74.3286 72.5077 74.0166 73.3302 73.4802C73.806 73.1694 74.2806 72.835 74.6613 72.5669L74.6754 72.5569L74.8602 72.4271C75.2257 72.1651 75.5985 71.9136 75.9783 71.673C76.2995 71.4747 76.5095 71.3704 76.6329 71.3187C76.6602 71.307 76.6879 71.2963 76.716 71.2865C79.4613 70.9271 82.1895 70.7896 84.638 71.0303C87.1157 71.2741 89.1445 71.8893 90.6189 72.8994C91.2745 73.3479 92.2149 74.6637 92.9545 77.7819C93.4844 80.0159 93.7373 82.3309 93.9935 84.7071L93.9946 84.7165L93.9951 84.7212L93.9951 84.7228C94.0771 85.501 94.1649 86.2786 94.2585 87.0555C94.7915 91.3776 94.0782 96.1307 92.2386 99.0254Z" fill="#8985D5"/>
<path fill-rule="evenodd" clip-rule="evenodd" d="M95.2907 135.759C98.4781 135.84 101.201 135.196 104.742 133.41C105.039 133.261 105.356 133.105 105.705 132.935L105.807 132.884C107.998 131.811 111.179 130.252 113.731 127.685C113.956 127.458 114.184 127.23 114.416 126.997L114.541 126.872C118.391 123.016 123.254 118.147 124.967 110.561C125.739 107.14 125.856 103.7 125.818 100.626C125.801 99.1937 125.748 97.7678 125.698 96.4381L125.686 96.1236C125.632 94.6737 125.586 93.3398 125.582 92.0561C125.569 88.084 124.527 84.3308 123.597 81.3754C123.285 80.3873 123.043 79.3194 122.767 78.0109L122.653 77.4696L122.648 77.4435C122.415 76.3306 122.143 75.032 121.798 73.742C120.982 70.6983 119.833 67.8268 118.758 65.2523C118.544 64.7411 118.333 64.2405 118.127 63.7508L118.119 63.7335L118.118 63.7309C117.251 61.6738 116.472 59.8242 115.817 57.9486C114.737 54.855 113.382 51.9124 111.675 49.0594C110.336 46.8191 108.613 45.2525 107.478 44.2194L107.426 44.1725C107.124 43.8971 106.886 43.6802 106.686 43.4856C103.933 40.804 100.438 39.7057 97.7459 39.1502C95.6465 38.7168 93.4353 38.5109 91.78 38.3566L91.7313 38.352C91.2706 38.309 90.8597 38.2706 90.4932 38.2325C84.7796 37.6332 78.4286 37.8436 72.9476 38.4781C70.7504 38.7322 67.064 39.1983 63.891 40.9941C63.308 41.3241 62.7394 41.5708 61.8577 41.9494L61.8515 41.952L61.8499 41.9531C61.3712 42.1587 60.8167 42.397 60.1697 42.6927C58.5942 43.4121 56.372 44.5318 54.5089 46.4715C54.0671 46.9319 53.6434 47.3116 53.049 47.8431L53.0448 47.8468C52.6868 48.1667 52.2767 48.5333 51.7998 48.9776C50.6894 50.0121 49.2423 51.4616 48.1186 53.377C47.1156 55.0863 45.9894 56.7442 44.7392 58.5469L44.2803 59.2083L44.2485 59.2539C43.1655 60.8127 41.9918 62.5016 40.8838 64.2636C36.4293 71.3466 36.5923 80.2265 37.569 86.6416C38.6296 93.6101 41.0223 101.623 45.2767 108.044C48.5771 113.026 52.4674 118.525 58.0054 122.788C58.976 123.535 59.9529 124.292 60.9381 125.055L60.9471 125.062C63.5052 127.043 66.1174 129.065 68.7377 131.017C72.9722 134.172 79.5556 135.778 84.6404 135.288L84.8554 135.267C85.7756 135.177 86.3993 135.119 87.0184 135.11C88.7513 135.182 90.1386 135.313 91.3893 135.442L91.8426 135.489L91.8887 135.494C92.9603 135.606 94.1466 135.73 95.2907 135.759ZM99.3218 122.655C98.2298 123.206 97.5257 123.462 97.0106 123.589C96.5275 123.707 96.1293 123.733 95.5965 123.719C94.9648 123.703 94.2685 123.632 93.0822 123.509L92.6221 123.462C91.2421 123.32 89.5229 123.155 87.3513 123.07L87.2236 123.065L87.0965 123.066C85.8373 123.07 84.6555 123.185 83.7698 123.272L83.7378 123.275L83.7347 123.275C83.6508 123.283 83.5669 123.291 83.4831 123.3C81.0555 123.534 77.7538 122.716 75.933 121.359C73.4092 119.479 70.9119 117.545 68.3637 115.572L68.3606 115.57C67.3659 114.799 66.3633 114.023 65.3523 113.245C61.523 110.297 58.5575 106.284 55.317 101.393C52.339 96.8972 50.3729 90.7255 49.4754 84.8293C48.627 79.2543 48.9822 74.0099 51.079 70.6753C52.0282 69.1656 53.0415 67.7064 54.1458 66.1166L54.1625 66.0925L54.6371 65.4091C55.8972 63.5911 57.2531 61.6081 58.507 59.4704C58.7282 59.0934 59.1385 58.6007 60.0098 57.7893C60.2217 57.5919 60.4857 57.3545 60.7993 57.073L60.8306 57.0451C61.5289 56.4186 62.4416 55.5992 63.1947 54.8144C63.419 54.5814 63.9072 54.226 65.1744 53.6473C65.4457 53.523 65.7796 53.379 66.181 53.2056L66.2327 53.1834L66.2338 53.1829C67.2534 52.7426 68.6482 52.1405 69.8236 51.4753C70.6197 51.0247 72.0108 50.7104 74.3325 50.4419C79.17 49.8816 84.608 49.7249 89.2369 50.2104C89.7784 50.2663 90.3202 50.3191 90.8623 50.369L90.8686 50.3695C92.5114 50.5239 93.9264 50.6596 95.3115 50.9451C97.1612 51.3269 97.9686 51.8074 98.282 52.1126C98.7754 52.5917 99.2766 53.0627 99.7854 53.5255L99.7891 53.5291C100.708 54.3703 100.972 54.6259 101.339 55.2412C102.605 57.3577 103.621 59.5546 104.447 61.92C105.239 64.1882 106.184 66.4287 107.045 68.468L107.058 68.4999C107.258 68.975 107.454 69.4386 107.644 69.8938C108.693 72.405 109.571 74.6479 110.165 76.8612C110.417 77.7993 110.618 78.7564 110.858 79.9069L110.859 79.909L110.859 79.9101L110.982 80.4963C111.264 81.832 111.607 83.3994 112.109 84.9939C112.979 87.7554 113.532 90.0479 113.538 92.0947C113.543 93.6097 113.597 95.1356 113.651 96.5715L113.661 96.8546C113.712 98.2172 113.76 99.5013 113.775 100.773C113.809 103.51 113.683 105.851 113.219 107.908C112.308 111.945 109.81 114.545 105.461 118.92L105.187 119.195C104.174 120.215 102.899 120.876 100.511 122.062L100.508 122.063C100.135 122.249 99.7378 122.446 99.3218 122.655Z" fill="#8985D5"/>
<path d="M83.0958 151.066L83.1764 151.066L83.2565 151.064C91.4752 150.818 97.8529 148.789 104.764 145.814C106.426 145.098 108.09 144.491 109.94 143.816L109.946 143.814C111.004 143.431 112.058 143.04 113.11 142.642C116.105 141.498 119.418 140.093 122.503 138.054C127.451 134.783 131.025 131.185 134.504 126.875C135.048 126.205 135.597 125.539 136.151 124.878L136.216 124.799C138.645 121.881 141.532 118.415 143.605 114.235C148.689 103.987 149.776 92.5108 149.659 82.1931C149.588 75.9771 147.33 70.291 145.547 65.8023L145.488 65.6575C145.262 65.0846 145.043 64.5332 144.833 63.9959C142.417 57.788 139.645 51.4619 136.202 45.4561L135.982 45.0737C133.178 40.1838 130.073 34.7688 126.546 29.8733C124.836 27.5013 123.513 25.6393 122.504 23.5973C121.328 21.2184 119.749 18.1096 116.884 15.4817C111.151 10.2232 105.07 8.16142 98.5254 6.70606C96.2441 6.19841 93.9796 6.18787 92.2804 6.20692C91.9115 6.21124 91.5609 6.21708 91.2312 6.22232C89.8648 6.24449 88.8993 6.25701 87.9837 6.17202C84.2543 5.82444 80.2094 5.46897 76.1697 5.43638C75.1899 5.42853 74.1887 5.40975 73.1567 5.39108L73.1153 5.39017C70.2138 5.33614 67.0819 5.27815 63.8876 5.46579C58.5987 5.77685 53.7774 7.30788 49.5754 8.75057C37.6821 12.8346 29.4904 20.2179 22.2058 29.094C18.3815 33.7529 14.8146 38.7125 11.9084 44.3655C11.4824 45.1942 10.8549 46.0153 9.78494 47.3919L9.78077 47.3972C9.54832 47.6962 9.29815 48.0173 9.03549 48.3604C7.78522 49.9889 5.95776 52.4481 5.09089 55.48C4.31975 58.1755 3.96707 61.1293 3.68522 63.4868L3.67554 63.569C3.56289 64.5087 3.46351 65.3417 3.35333 66.0731C2.22239 73.5825 1.91278 82.3022 3.11008 90.1134C3.41582 92.1105 3.88117 94.0977 4.28496 95.8244L4.29398 95.8626C4.42601 96.4211 4.55496 96.9803 4.68086 97.5402C5.00845 99.0056 5.50811 100.271 5.86999 101.167L5.97707 101.431L6.01874 101.533C6.33841 102.321 6.52358 102.783 6.66537 103.263C6.9061 104.077 7.03162 104.869 7.21602 106.068L7.21761 106.077C7.30527 106.647 7.40468 107.295 7.53525 108.03C7.99042 110.6 9.06934 112.825 9.78528 114.301L9.82058 114.374C9.93332 114.607 10.0345 114.815 10.1267 115.01C11.9171 118.798 14.0195 122.439 15.9646 125.81L15.9872 125.848L16.6745 127.04C18.3243 129.907 20.6983 132.055 22.8014 133.659C24.4036 134.881 26.1421 135.998 27.5559 136.906L27.5889 136.926C28.0069 137.195 28.3939 137.443 28.75 137.676C32.1835 139.924 37.1262 142.802 42.087 143.981C43.1235 144.227 44.0656 144.428 44.9218 144.611L44.9307 144.613C47.0936 145.076 48.6574 145.415 50.3086 146.091C53.9919 147.597 57.737 148.103 60.8106 148.457C61.2708 148.511 61.7195 148.561 62.1545 148.61L62.1576 148.609C64.8229 148.907 66.9118 149.146 68.8975 149.695C73.8982 151.078 79.1473 151.079 83.0958 151.066ZM100.002 134.752C93.8965 137.38 89.0917 138.829 82.9745 139.023C78.8873 139.035 75.2651 138.961 72.1081 138.087C69.1157 137.26 66.029 136.919 63.4794 136.637L63.4051 136.629C62.9857 136.583 62.5826 136.538 62.191 136.493C59.187 136.147 56.8905 135.771 54.8672 134.943C52.1418 133.829 49.2871 133.22 46.9975 132.732L46.9211 132.715C46.1727 132.556 45.494 132.411 44.8708 132.263C42.0489 131.593 38.5621 129.705 35.3452 127.599C34.8638 127.284 34.3903 126.979 33.933 126.686L33.9303 126.684L33.9272 126.682C32.5286 125.783 31.2857 124.983 30.1064 124.083C28.5498 122.896 27.6104 121.897 27.112 121.031L26.4342 119.856L26.4242 119.838C24.4354 116.392 22.5793 113.173 21.0155 109.864C20.8764 109.57 20.7452 109.295 20.6235 109.041L20.6229 109.04C19.8469 107.417 19.5359 106.728 19.3941 105.928C19.3366 105.604 19.2762 105.212 19.2035 104.743L19.1939 104.679C18.9881 103.349 18.7017 101.494 18.2149 99.8472C17.8896 98.7487 17.4723 97.7237 17.1759 96.9973L17.1632 96.9659L17.1606 96.9596L17.0371 96.656C16.6979 95.8161 16.53 95.3388 16.4349 94.9147C16.2757 94.2019 16.1181 93.5283 15.969 92.8903L15.9668 92.8814C15.5742 91.2023 15.2436 89.784 15.0143 88.2886C14.0431 81.9509 14.2657 74.4864 15.2629 67.8661C15.4581 66.5692 15.5962 65.3981 15.7215 64.3369L15.722 64.3353L15.7236 64.3217C15.9783 62.1621 16.1787 60.5103 16.6704 58.7917C16.8437 58.1841 17.334 57.3284 18.5889 55.6937C18.7578 55.4739 18.9412 55.2388 19.1435 54.9807L19.1946 54.9151C20.2083 53.6192 21.6239 51.8086 22.6193 49.8722C25.0034 45.2352 28.0116 41.0033 31.5153 36.7347C38.0216 28.8068 44.49 23.2314 53.4867 20.1415C57.6082 18.7268 61.0809 17.6952 64.5944 17.4887C67.2875 17.3304 69.8405 17.3767 72.6886 17.4293L72.6965 17.4298C73.7778 17.4494 74.9004 17.4704 76.0727 17.4797C79.5409 17.5073 83.12 17.8146 86.8666 18.1637C88.5057 18.3165 90.2137 18.2869 91.5435 18.2638L91.5958 18.2626C91.8878 18.2575 92.1594 18.2529 92.4163 18.25C94.0543 18.2317 95.1012 18.2822 95.9103 18.4623C101.539 19.7144 105.251 21.1537 108.744 24.3574C109.792 25.319 110.54 26.5726 111.707 28.9333C113.198 31.9508 115.074 34.5536 116.673 36.7732L116.775 36.9142C119.92 41.2803 122.752 46.2136 125.648 51.2623L125.753 51.4478C128.785 56.7337 131.308 62.4509 133.61 68.3646C133.835 68.9437 134.059 69.5108 134.276 70.0633L134.278 70.0669C136.181 74.8996 137.572 78.5109 137.616 82.3295C137.724 91.8999 136.657 101.138 132.816 108.883C131.427 111.684 129.559 113.953 127.125 116.886L127.12 116.891C126.489 117.652 125.822 118.456 125.132 119.311C122.199 122.944 119.51 125.595 115.861 128.007C113.898 129.305 111.575 130.336 108.814 131.39C107.907 131.733 106.997 132.071 106.085 132.401L106.053 132.413C104.107 133.124 101.976 133.902 100.002 134.752Z" stroke="#4A4A4A" stroke-linecap="round" stroke-linejoin="round"/>
<path d="M71.5925 107.198C80.2781 111.71 91.0123 108.785 96.6177 99.9638C100.46 93.918 101.164 86.05 100.426 80.0612C100.361 79.5307 100.295 78.9176 100.22 78.2202L100.214 78.1653C99.9581 75.7766 99.6096 72.5262 98.8876 69.4816C97.9821 65.6652 96.1549 60.5351 91.6391 57.442C84.5532 52.5887 75.2268 53.0514 69.313 53.8308C66.9851 54.1381 65.1147 55.1316 63.856 55.9102C63.2751 56.2745 62.7051 56.6559 62.1468 57.0539L61.9358 57.2027C61.5322 57.4866 61.2429 57.6901 60.9635 57.8726C59.6516 58.7282 58.3752 59.6974 57.218 60.9869C56.0463 62.2927 55.1999 63.6995 54.4789 65.2258C52.7313 68.9262 52.2003 72.754 51.7932 75.6881L51.7778 75.7964C51.7266 76.1666 51.6775 76.5205 51.6279 76.8635C51.1271 80.318 51.2339 83.5896 52.2098 86.8176C53.1751 90.011 54.8738 92.7719 56.9896 95.3719C58.1849 96.8402 59.5939 97.7138 60.7861 98.3809C61.0734 98.5417 61.3397 98.6874 61.5898 98.8237L61.5909 98.8242C62.4118 99.2722 63.0556 99.6234 63.6742 100.105C65.0096 102.348 67.6095 105.129 71.5925 107.198ZM86.4532 93.5044C84.0475 97.2895 80.0432 98.0162 77.1443 96.5104C76.0781 95.9565 75.3136 95.3529 74.8008 94.8569C74.5435 94.6086 74.3523 94.3894 74.2194 94.2203C74.1532 94.1362 74.1032 94.0673 74.0691 94.0166C74.0333 93.9634 74.0201 93.9388 74.0228 93.944C72.433 91.0514 69.5894 89.4884 67.4011 88.432C66.9661 88.222 66.7968 88.1388 66.6489 88.0561C66.553 88.002 66.5315 87.9842 66.5215 87.9759L66.5205 87.9754C66.5068 87.9639 66.4486 87.9144 66.3309 87.7698C64.8524 85.9528 64.1121 84.5683 63.7382 83.3329C63.3753 82.1314 63.243 80.689 63.5472 78.59L63.7007 77.5156L63.7022 77.5051C64.1557 74.3087 64.4616 72.2908 65.3692 70.3688C65.7435 69.5758 65.9957 69.238 66.1814 69.0307C66.3821 68.8076 66.7223 68.4956 67.5443 67.9592C67.9934 67.6627 68.4372 67.3582 68.8754 67.0459L68.8895 67.0359L69.0743 66.9061C69.5292 66.5864 69.8733 66.3498 70.1929 66.152C70.5136 65.9537 70.7242 65.8494 70.8475 65.7977C70.8748 65.786 70.9026 65.7753 70.9306 65.7655C73.6759 65.4061 76.4042 65.2686 78.8526 65.5093C81.3298 65.7531 83.3587 66.3683 84.8335 67.3784C85.4886 67.8269 86.4291 69.1427 87.1686 72.2609C87.6986 74.4949 87.9514 76.8099 88.2076 79.1861L88.2087 79.1955L88.2092 79.2002L88.2098 79.2017C88.2915 79.98 88.3793 80.7576 88.4731 81.5345C89.0056 85.8566 88.2929 90.6097 86.4532 93.5044Z" stroke="#4A4A4A" stroke-linecap="round" stroke-linejoin="round"/>
<path d="M89.5052 130.237C92.6926 130.318 95.415 129.674 98.957 127.889C99.2533 127.739 99.571 127.583 99.919 127.413L100.022 127.363C102.213 126.29 105.393 124.731 107.945 122.162L108.63 121.476L108.755 121.35C112.605 117.495 117.468 112.626 119.181 105.04C119.953 101.619 120.071 98.1794 120.032 95.1044C120.015 93.6726 119.962 92.2462 119.912 90.9165L119.901 90.602C119.846 89.1521 119.8 87.8182 119.796 86.5345C119.783 82.5624 118.742 78.8092 117.811 75.8538C117.5 74.8657 117.257 73.7978 116.981 72.4893L116.867 71.948L116.862 71.9219C116.629 70.809 116.358 69.5104 116.012 68.2204C115.196 65.1767 114.047 62.3052 112.972 59.7307C112.759 59.2195 112.547 58.7189 112.341 58.2292L112.334 58.2119L112.333 58.2093C111.465 56.1522 110.686 54.3026 110.031 52.427C108.951 49.3334 107.597 46.3913 105.889 43.5378C104.55 41.2975 102.828 39.7309 101.692 38.6978L101.641 38.6514C101.338 38.3756 101.1 38.1586 100.9 37.964C98.1474 35.2824 94.6517 34.1841 91.96 33.6286C89.8605 33.1952 87.6493 32.9893 85.9945 32.835L85.9453 32.8304C85.4852 32.7874 85.0742 32.7495 84.7072 32.7109C78.9936 32.1116 72.6431 32.322 67.1621 32.9565C64.9644 33.2106 61.278 33.6767 58.1055 35.4724C57.5225 35.8024 56.9539 36.0492 56.0723 36.4278L56.066 36.4309L56.0644 36.4315C55.5857 36.6371 55.0307 36.8754 54.3843 37.1711C52.8082 37.891 50.5865 39.0102 48.7229 40.9499C48.2811 41.4103 47.8579 41.79 47.263 42.3215L47.2588 42.3252C46.9013 42.6451 46.4907 43.0117 46.0138 43.4559C44.9034 44.4905 43.4563 45.94 42.3326 47.8554C41.3301 49.5647 40.2034 51.2226 38.9537 53.0253L38.4948 53.6867L38.4625 53.7328C37.3795 55.2916 36.2058 56.98 35.0978 58.742C30.6439 65.825 30.8068 74.7049 31.783 81.12C32.8436 88.0885 35.2369 96.1009 39.4912 102.523C42.7917 107.505 46.682 113.003 52.2194 117.266C53.19 118.014 54.1674 118.77 55.1527 119.533L55.1611 119.54C57.7197 121.521 60.3314 123.543 62.9522 125.496C67.1862 128.651 73.7696 130.257 78.8549 129.766L79.0694 129.745C79.9902 129.656 80.6138 129.597 81.2329 129.588C82.9659 129.66 84.3531 129.792 85.6033 129.921C85.7544 129.936 85.9055 129.952 86.0566 129.968L86.1032 129.973C87.1743 130.085 88.3606 130.208 89.5052 130.237ZM93.5364 117.134C92.4444 117.684 91.7403 117.94 91.2247 118.067C90.7415 118.185 90.3438 118.211 89.811 118.197C89.1793 118.181 88.4825 118.111 87.2968 117.988L86.8366 117.94C85.4566 117.798 83.7375 117.634 81.5653 117.548L81.4382 117.544L81.3105 117.544C80.0519 117.548 78.87 117.663 77.9843 117.75L77.9519 117.753L77.9492 117.753C77.8969 117.759 77.8462 117.764 77.7965 117.768L77.6976 117.778C75.2701 118.012 71.9678 117.195 70.1475 115.838C67.6232 113.958 65.1259 112.023 62.5782 110.051L62.5751 110.049C61.5735 109.272 60.5707 108.497 59.5668 107.723C55.7376 104.775 52.772 100.762 49.5316 95.8709C46.553 91.3756 44.5869 85.2039 43.6899 79.3077C42.841 73.7327 43.1963 68.4883 45.293 65.1537C46.2428 63.6439 47.2555 62.1848 48.3598 60.595L48.377 60.5709L48.8516 59.8875C50.1117 58.0695 51.4676 56.0865 52.721 53.9488C52.9422 53.5718 53.353 53.0791 54.2238 52.2677C54.4362 52.0703 54.6997 51.8329 55.0139 51.5514L55.0447 51.5235C55.7429 50.897 56.6556 50.0776 57.4093 49.2928C57.633 49.0598 58.1217 48.7044 59.389 48.1257C59.6602 48.0014 59.9936 47.8574 60.395 47.684L60.4472 47.6618L60.4483 47.6613C61.4674 47.221 62.8622 46.6189 64.0381 45.9536C64.8342 45.5031 66.2253 45.1888 68.547 44.9203C73.3845 44.3605 78.822 44.2033 83.4514 44.6888C84.0084 44.7472 84.5534 44.7983 85.0764 44.8474L85.0832 44.8479C86.7259 45.0023 88.1409 45.138 89.526 45.4235C91.3757 45.8053 92.1832 46.2858 92.496 46.5909C92.9894 47.0701 93.4906 47.5411 93.9994 48.0038L94.0036 48.0075C94.9216 48.8487 95.1857 49.1043 95.554 49.7196C96.8199 51.8366 97.8349 54.033 98.661 56.3984C99.4532 58.6666 100.399 60.9071 101.259 62.9464L101.273 62.9783C101.473 63.4534 101.669 63.9169 101.858 64.3722C102.907 66.8834 103.785 69.1263 104.379 71.3396C104.631 72.2777 104.832 73.2348 105.073 74.3853L105.073 74.3874L105.073 74.3885L105.197 74.9747C105.478 76.3104 105.822 77.8783 106.324 79.4723C107.194 82.2338 107.746 84.5263 107.752 86.5731C107.757 88.0886 107.812 89.614 107.865 91.0499L107.876 91.3329C107.926 92.6956 107.974 93.9802 107.99 95.2518C108.023 97.9888 107.897 100.33 107.433 102.387C106.522 106.423 104.024 109.024 99.6752 113.398L99.4013 113.674C98.3883 114.693 97.1129 115.354 94.7245 116.54L94.7225 116.542C94.3489 116.727 93.9523 116.924 93.5364 117.134Z" stroke="#4A4A4A" stroke-linecap="round" stroke-linejoin="round"/>
</g>
<defs>
<clipPath id="clip0_679_15">
<rect width="157" height="157" fill="white" transform="translate(157.502 156.999) rotate(179.816)"/>
</clipPath>
</defs>
</svg>
