<svg width="100" height="100" viewBox="0 0 100 100" fill="none" xmlns="http://www.w3.org/2000/svg">
<path d="M4.89518 51.6713C5.34451 57.5373 5.08051 65.9683 7.19018 69.88C7.86218 71.125 18.3225 72.463 21.7835 72.7923C29.7035 73.5447 37.6395 74.141 45.5802 74.6297C55.8248 75.2604 89.8708 72.3653 93.2405 66.783C98.0332 58.843 97.3635 20.4433 93.8192 13.464C93.3618 12.5643 92.8252 11.665 92.0775 10.9863C85.6382 5.13701 79.0295 16.8663 76.4242 20.8013L75.3112 22.5413C74.5842 23.7147 73.8852 24.9063 73.1882 26.098C73.0608 26.316 70.7335 32.018 69.1195 31.329C67.4695 30.6243 65.3252 27.569 64.4972 26.3537C60.3395 20.2527 58.8882 16.7337 53.5922 11.5407C52.5978 10.5657 48.9898 8.90568 47.0335 9.53335C37.4632 12.6 31.2662 31.3367 29.0155 29.876C22.1168 25.398 17.5498 17.852 10.9898 12.8407C9.98851 12.0757 7.50084 10.7283 6.05751 11.858C4.30818 13.228 3.67418 17.128 3.56584 18.868C2.85584 30.3167 3.99284 39.906 4.89518 51.6713Z" fill="#C14C7C"/>
<path d="M4.89518 67.575C5.34451 73.441 5.08051 81.872 7.19018 85.7837C7.86218 87.0287 18.3225 88.3663 21.7835 88.696C29.7035 89.4483 37.6395 90.0443 45.5802 90.5333C55.8248 91.164 89.8709 88.269 93.2405 82.6867C98.0332 74.7467 97.3635 36.347 93.8192 29.3677C93.3619 28.468 92.8252 27.5687 92.0775 26.89C85.6382 21.0407 79.0295 32.77 76.4242 36.705L75.3112 38.4453C74.5842 39.6187 73.8852 40.81 73.1882 42.0017C73.0608 42.2197 70.7335 47.9217 69.1195 47.2327C67.4695 46.528 65.3252 43.4723 64.4972 42.2573C60.3395 36.1563 58.8882 32.6373 53.5922 27.4443C52.5978 26.4693 48.9898 24.8093 47.0335 25.437C37.4632 28.504 31.2662 47.2407 29.0155 45.7793C22.1168 41.3017 17.5495 33.7553 10.9898 28.7443C9.98851 27.9793 7.50085 26.632 6.05751 27.7617C4.30818 29.1317 3.67418 33.0317 3.56584 34.7717C2.85584 46.2203 3.99284 55.8097 4.89518 67.575Z" stroke="#27292F" stroke-miterlimit="1.5" stroke-linecap="round" stroke-linejoin="round"/>
</svg>
