<svg width="100" height="100" viewBox="0 0 100 100" fill="none" xmlns="http://www.w3.org/2000/svg">
<path fill-rule="evenodd" clip-rule="evenodd" d="M39.3031 42.1523C40.1114 40.5323 34.8854 31.2367 34.4804 29.009C32.8984 20.3087 30.0058 7.65366 42.3718 4.744C65.3514 -0.662671 51.3041 39.0903 55.2544 41.0653C62.6348 44.7557 97.1328 25.4737 94.5608 48.6247C94.2471 51.4477 90.8391 56.1693 88.4561 56.699C81.6461 58.2123 76.5811 57.635 69.5368 57.635C61.4104 57.284 58.2768 54.8023 57.2324 56.699C56.1884 58.5953 60.6694 81.1847 57.2324 88.5493C53.7958 95.914 39.1291 99.332 36.8721 90.8673C33.7104 79.0117 40.4994 69.0397 40.4994 57.752C40.4994 57.752 40.5271 57.6623 40.4994 57.635C36.0814 53.217 6.81209 70.6627 0.948094 53.0713C-0.354572 49.163 3.17876 46.1173 5.97976 44.1783C15.9664 37.2643 38.2921 44.1783 39.3031 42.1523Z" fill="#D9DD7E"/>
<path d="M43.7198 39.467C44.5284 37.8467 39.3021 28.5514 38.8971 26.3237C37.3154 17.623 34.4228 4.96803 46.7884 2.05869C69.7681 -3.34831 55.7208 36.4047 59.6714 38.38C67.0514 42.07 101.55 22.788 98.9774 45.9394C98.6638 48.762 95.2558 53.484 92.8731 54.0134C86.0628 55.5267 80.9981 54.9494 73.9538 54.9494C65.8274 54.5984 62.6934 52.117 61.6494 54.0134C60.6054 55.9097 65.0864 78.499 61.6494 85.8637C58.2124 93.2287 43.5461 96.6464 41.2888 88.1817C38.1271 76.3264 44.9161 66.354 44.9161 55.0664C44.9161 55.0664 44.9438 54.977 44.9161 54.9494C40.4984 50.5317 11.2288 67.977 5.36509 50.3857C4.06242 46.4777 7.59575 43.4317 10.3968 41.4927C20.3834 34.5787 42.7088 41.4927 43.7198 39.467Z" stroke="#27292F" stroke-miterlimit="1.5" stroke-linecap="round" stroke-linejoin="round"/>
</svg>
